<svg width="22" height="22" viewBox="0 0 22 22" fill="none" xmlns="http://www.w3.org/2000/svg">
<path d="M0.333984 21.6665V12.3331H9.66732L5.37798 16.6264C6.85793 18.1398 8.88393 18.995 11.0007 18.9998C14.3866 18.9948 17.4027 16.8587 18.5313 13.6665H18.5553C18.708 13.2326 18.8236 12.7866 18.9007 12.3331H21.5833C20.9114 17.6663 16.376 21.6663 11.0007 21.6665H10.9873C8.159 21.6749 5.44487 20.5514 3.44998 18.5464L0.333984 21.6665ZM3.09932 9.66645H0.416651C1.08832 4.33526 5.62065 0.335974 10.994 0.333062H11.0007C13.8295 0.324011 16.5443 1.44757 18.5393 3.45312L21.6673 0.333062V9.66645H12.334L16.63 5.37312C15.1485 3.85798 13.1197 3.00264 11.0007 2.99978C7.61472 3.00478 4.59863 5.14083 3.46998 8.33312H3.44598C3.29206 8.76659 3.1765 9.21275 3.10065 9.66645H3.09932Z" fill="white"/>
</svg>
